<svg id="Capa_1" enable-background="new 0 0 512 512" height="512" viewBox="0 0 512 512" width="512" xmlns="http://www.w3.org/2000/svg"><g><g><circle cx="301" cy="151.85" fill="#fed843" r="135"/><path d="m436 151.85c0-74.559-60.441-135-135-135v270c74.559 0 135-60.441 135-135z" fill="#fabe2c"/><g><path d="m301 136.85c-8.276 0-15-6.724-15-15s6.724-15 15-15 15 6.724 15 15h30c0-19.565-12.563-36.048-30-42.246v-32.754h-15-15v32.754c-17.437 6.198-30 22.681-30 42.246 0 24.853 20.147 45 45 45 8.276 0 15 6.724 15 15s-6.724 15-15 15-15-6.724-15-15h-30c0 19.565 12.563 36.048 30 42.246v32.754h15 15v-32.754c17.437-6.198 30-22.681 30-42.246 0-24.853-20.147-45-45-45z" fill="#fabe2c"/></g><g fill="#ff9100"><path d="m316 224.096c17.437-6.198 30-22.681 30-42.246 0-24.853-20.147-45-45-45v30c8.276 0 15 6.724 15 15s-6.724 15-15 15v60h15z"/><path d="m316 121.85h30c0-19.565-12.563-36.048-30-42.246v-32.754h-15v60c8.276 0 15 6.724 15 15z"/></g></g><path d="m504.247 334.112c-12.942-22.321-43.255-27.486-65.338-14.145l-137.909 82.372-7.5 4.512h-97.5v-30h90v-60h-125.099c-56.4 0-106.899 21-150.099 64.501l-10.802 10.498 103.301 103.3 10.867-8.071c16.809-12.486 38.392-20.228 59.332-20.228h127.5 6.899l204.101-119.4s-7.668-13.193-7.753-13.339z" fill="#ffe6cc"/><path d="m512 347.451s-7.668-13.193-7.753-13.339c-12.942-22.321-43.255-27.486-65.338-14.145l-137.909 82.372v64.512h6.899z" fill="#fc9"/></g></svg>