<svg id="Capa_1" enable-background="new 0 0 512 512" height="512" viewBox="0 0 512 512" width="512" xmlns="http://www.w3.org/2000/svg"><g><path d="m240 233.074-120-58.389-120 58.389v278.926h120 120l15-24.474v-215.526z" fill="#edf9ff"/><path d="m255 487.526v-215.526l-15-38.926-120-58.389v337.315h120z" fill="#c0e1f0"/><path d="m512 65.7v446.3h-91l-30-30h-30l-30 30h-91v-446.3l136-65.7z" fill="#edf9ff"/><path d="m512 65.7v446.3h-91l-30-30h-15v-482z" fill="#c0e1f0"/><path d="m421 422v90h-30l-15-30-15 30h-30v-90z" fill="#46688c"/><path d="m421 422v90h-30l-15-30v-60z" fill="#2d5177"/><path d="m301 122h30v30h-30z" fill="#c0e1f0"/><path d="m421 122h30v30h-30z" fill="#8fc3d9"/><path d="m361 122h30v30h-30z" fill="#c0e1f0"/><path d="m301 182h30v30h-30z" fill="#c0e1f0"/><path d="m361 182h30v30h-30z" fill="#c0e1f0"/><path d="m421 182h30v30h-30z" fill="#8fc3d9"/><path d="m301 242h30v30h-30z" fill="#c0e1f0"/><path d="m421 242h30v30h-30z" fill="#8fc3d9"/><path d="m361 242h30v30h-30z" fill="#c0e1f0"/><path d="m301 302h30v30h-30z" fill="#c0e1f0"/><path d="m361 302h30v30h-30z" fill="#c0e1f0"/><path d="m421 302h30v30h-30z" fill="#8fc3d9"/><path d="m301 362h30v30h-30z" fill="#c0e1f0"/><path d="m421 362h30v30h-30z" fill="#8fc3d9"/><path d="m361 362h30v30h-30z" fill="#c0e1f0"/><path d="m45 302h30v30h-30z" fill="#c0e1f0"/><path d="m105 302h30v30h-30z" fill="#c0e1f0"/><path d="m165 302h30v30h-30z" fill="#8fc3d9"/><path d="m45 362h30v30h-30z" fill="#c0e1f0"/><path d="m165 362h30v30h-30z" fill="#8fc3d9"/><path d="m105 362h30v30h-30z" fill="#c0e1f0"/><path d="m361 452h30v60h-30z" fill="#edf9ff"/><g fill="#8fc3d9"><path d="m376 122h15v30h-15z"/><path d="m376 182h15v30h-15z"/><path d="m376 242h15v30h-15z"/><path d="m376 302h15v30h-15z"/><path d="m376 362h15v30h-15z"/></g><path d="m361 452h30v60h-30z" fill="#97de3d"/><path d="m376 452h15v60h-15z" fill="#59c36a"/><path d="m165 422v90h-30l-15-30-15 30h-30v-90z" fill="#2d5177"/><path d="m165 422v90h-30l-15-30v-60z" fill="#32405d"/><path d="m105 452h30v60h-30z" fill="#edf9ff"/><path d="m105 452h30v60h-30z" fill="#59c36a"/><path d="m120 452h15v60h-15z" fill="#00a66c"/><path d="m120 302h15v30h-15z" fill="#8fc3d9"/><path d="m120 362h15v30h-15z" fill="#8fc3d9"/></g></svg>