<svg id="Capa_1" enable-background="new 0 0 496.125 496.125" height="512" viewBox="0 0 496.125 496.125" width="512" xmlns="http://www.w3.org/2000/svg"><g><path d="m471.69 444.225h-447.255v-319.765c0-9.607 7.788-17.395 17.395-17.395h414.825c8.303 0 15.035 6.731 15.035 15.035z" fill="#5f99d7"/><path d="m125.598 107.065h-83.768c-9.607 0-17.395 7.788-17.395 17.395v319.765h83.768v-319.765c0-9.607 7.788-17.395 17.395-17.395z" fill="#3c87d0"/><path d="m469.18 465.837h-442.235c-14.881 0-26.945-12.063-26.945-26.944v-6.258c0-2.436 1.974-4.41 4.41-4.41h487.305c2.436 0 4.41 1.974 4.41 4.41v6.258c0 14.881-12.064 26.944-26.945 26.944z" fill="#7bacdf"/><path d="m86.504 438.892v-6.258c0-2.436 1.974-4.41 4.41-4.41h-86.504c-2.436 0-4.41 1.974-4.41 4.41v6.258c0 14.881 12.064 26.945 26.945 26.945h86.504c-14.881 0-26.945-12.063-26.945-26.945z" fill="#5f99d7"/><path d="m456.655 107.065h-159.087v78.563c0 7.057 2.948 13.837 8.089 18.602 4.733 4.388 10.896 6.804 17.354 6.804 7.384 0 14.392-3.234 19.228-8.872l9.438-11.001h110.447c3.266 0 6.459-.308 9.567-.866v-68.196c-.001-8.303-6.733-15.034-15.036-15.034z" fill="#3c87d0"/><path d="m433.943 137.065h-371.761c-4.279 0-7.747 3.469-7.747 7.747v245.665c0 4.279 3.469 7.747 7.747 7.747h123.519l9.496-9.468h106.574l8.653 9.468h123.519c4.279 0 7.747-3.469 7.747-7.747v-245.665c0-4.279-3.468-7.747-7.747-7.747z" fill="#dff6fd"/><path d="m108.203 137.065h-46.021c-4.279 0-7.747 3.469-7.747 7.747v245.665c0 4.279 3.469 7.747 7.747 7.747h46.021z" fill="#c8effe"/><path d="m441.69 144.812c0-4.279-3.469-7.747-7.747-7.747h-136.375v48.563c0 7.057 2.948 13.837 8.089 18.602 4.733 4.388 10.896 6.804 17.354 6.804 7.384 0 14.392-3.234 19.228-8.872l9.438-11.001h90.015v-46.349z" fill="#c8effe"/><g><g><path d="m264.96 320.347 36.974 30.787c5.378 4.488 8.49 11.147 8.49 18.171v28.92h-124.723v-28.92c0-7.024 3.111-13.684 8.49-18.171l37.012-30.912z" fill="#f37c7c"/><path d="m272.593 326.702-7.632-6.355-33.758-.125-37.012 30.912c-5.378 4.488-8.49 11.147-8.49 18.171v28.92h25.003v-22.5c0-7.024 3.111-13.684 8.49-18.171l5.722-4.779c3.639-3.04 8.588-4.156 13.105-2.711 3.168 1.013 6.54 1.562 10.042 1.562 13.615 0 25.338-8.235 30.465-19.982z" fill="#ee6161"/><path d="m266.289 318.4c0 10.066-8.16 18.226-18.226 18.226-10.066 0-18.226-8.16-18.226-18.226v-45.414h36.453v45.414z" fill="#ffe5c2"/><path d="m290.576 217.326c0-9.49-7.693-17.183-17.183-17.183h-48.247l-14.965-4.917c-2.178-.716-4.418.907-4.418 3.199v53.885h84.813z" fill="#a79ba7"/><path d="m228.03 216.804c0-2.292 2.241-3.914 4.418-3.199l12.701 4.173c1.5.493 3.069.744 4.648.744h40.778v-1.197c0-9.49-7.693-17.183-17.183-17.183h-48.247l-14.965-4.917c-2.178-.716-4.418.907-4.418 3.199v53.885h22.267v-35.505z" fill="#918291"/><path d="m243.073 302.308h-13.237v15.626c0 8.939 6.257 16.866 15.061 18.414 3.497.615 6.848.185 9.812-.971-4.279-1.67-7.802-8.521-9.802-13.355-.94-2.27.754-4.711 3.211-4.708h.052c6.386 0 12.492-1.206 18.12-3.382v-11.422z" fill="#fed2a4"/><path d="m248.169 309.314c-23.42 0-42.406-18.986-42.406-42.406v-26.989h84.813v26.989c0 23.42-18.986 42.406-42.407 42.406z" fill="#ffe5c2"/><path d="m227.525 262.4v-22.481h-21.763v26.989c0 23.42 18.986 42.406 42.406 42.406 6.909 0 13.391-1.632 19.155-4.562-22.22-1.332-39.798-19.797-39.798-42.352z" fill="#fed2a4"/></g></g><path d="m462.123 171.161h-113.627c-3.817 0-7.444 1.667-9.929 4.564l-11.508 13.415c-3.261 3.801-9.491 1.495-9.491-3.513v-121.338c0-18.779 15.223-34.002 34.002-34.002h110.554c18.779 0 34.002 15.223 34.002 34.002v72.87c-.001 18.779-15.224 34.002-34.003 34.002z" fill="#ade194"/><path d="m355.762 83.885c0-18.779 15.223-34.002 34.002-34.002l103.17.007c-5.424-11.575-17.184-19.603-30.811-19.603h-110.553c-18.779 0-34.002 15.223-34.002 34.002v121.339c0 5.008 6.23 7.314 9.491 3.513l11.508-13.416c2.485-2.897 6.112-4.564 9.929-4.564h7.266z" fill="#97da7b"/></g></svg>