<?xml version="1.0" encoding="iso-8859-1"?>
<!-- Generator: Adobe Illustrator 19.0.0, SVG Export Plug-In . SVG Version: 6.00 Build 0)  -->
<svg version="1.1" id="Capa_1" xmlns="http://www.w3.org/2000/svg" xmlns:xlink="http://www.w3.org/1999/xlink" x="0px" y="0px"
	 viewBox="0 0 464 464" style="enable-background:new 0 0 464 464;" xml:space="preserve">
<path style="fill:#505968;" d="M32,32h400c17.673,0,32,14.327,32,32v272c0,17.673-14.327,32-32,32H32c-17.673,0-32-14.327-32-32V64
	C0,46.327,14.327,32,32,32z"/>
<g>
	<path style="fill:#EFF2FA;" d="M32,208c-2.127,0.018-4.173-0.818-5.68-2.32c-0.704-0.779-1.272-1.672-1.68-2.64
		c-0.854-1.937-0.854-4.143,0-6.08c0.387-0.979,0.957-1.875,1.68-2.64c2.322-2.229,5.736-2.887,8.72-1.68
		c0.969,0.406,1.862,0.974,2.64,1.68c0.706,0.778,1.274,1.671,1.68,2.64c0.448,0.949,0.668,1.991,0.64,3.04
		c0.044,4.374-3.465,7.956-7.839,8C32.107,208.001,32.054,208.001,32,208L32,208z"/>
	<circle style="fill:#EFF2FA;" cx="432" cy="200" r="16"/>
	<path style="fill:#EFF2FA;" d="M64,32h336v336H64V32z"/>
</g>
<path style="fill:#ADF0FF;" d="M168,128h128c39.764,0,72,32.236,72,72l0,0c0,39.764-32.236,72-72,72H168c-39.764,0-72-32.236-72-72
	l0,0C96,160.236,128.236,128,168,128z"/>
<g>
	<path style="fill:#505968;" d="M176,176h-8c-4.418,0-8-3.582-8-8s3.582-8,8-8h8c4.418,0,8,3.582,8,8S180.418,176,176,176z"/>
	<path style="fill:#505968;" d="M232,176h-24c-4.418,0-8-3.582-8-8s3.582-8,8-8h24c4.418,0,8,3.582,8,8S236.418,176,232,176z"/>
	<path style="fill:#505968;" d="M160,208h-8c-4.418,0-8-3.582-8-8s3.582-8,8-8h8c4.418,0,8,3.582,8,8S164.418,208,160,208z"/>
	<path style="fill:#505968;" d="M224,208h-32c-4.418,0-8-3.582-8-8s3.582-8,8-8h32c4.418,0,8,3.582,8,8S228.418,208,224,208z"/>
	<path style="fill:#505968;" d="M192,240h-16c-4.418,0-8-3.582-8-8s3.582-8,8-8h16c4.418,0,8,3.582,8,8S196.418,240,192,240z"/>
	<path style="fill:#505968;" d="M232,240h-8c-4.418,0-8-3.582-8-8s3.582-8,8-8h8c4.418,0,8,3.582,8,8S236.418,240,232,240z"/>
</g>
<circle style="fill:#4DC4E0;" cx="296" cy="200" r="40"/>
<path style="fill:#F2CBA7;" d="M392,288c-8.837,0-16,7.163-16,16c0-8.837-7.163-16-16-16s-16,7.163-16,16c0-8.837-7.163-16-16-16
	s-16,7.163-16,16v-88c0-8.837-7.163-16-16-16s-16,7.163-16,16v128l-20-20c-6.627-6.627-17.373-6.627-24,0
	c-6.627,6.627-6.627,17.373,0,24l60,60v24h88v-24c15.368-15.367,24.001-36.211,24-57.944V304C408,295.163,400.837,288,392,288z"/>
<g>
</g>
<g>
</g>
<g>
</g>
<g>
</g>
<g>
</g>
<g>
</g>
<g>
</g>
<g>
</g>
<g>
</g>
<g>
</g>
<g>
</g>
<g>
</g>
<g>
</g>
<g>
</g>
<g>
</g>
</svg>
